<?xml version="1.0" encoding="utf-8"?>
<!-- Generator: Adobe Illustrator 24.1.3, SVG Export Plug-In . SVG Version: 6.00 Build 0)  -->
<svg version="1.1" id="Layer_1" xmlns="http://www.w3.org/2000/svg" xmlns:xlink="http://www.w3.org/1999/xlink" x="0px" y="0px"
	 viewBox="0 0 19 17" style="enable-background:new 0 0 19 17;" xml:space="preserve">
<style type="text/css">
	.st0{fill:none;}
	.st1{fill:#f78e1e;}
	.st2{enable-background:new    ;}
</style>
<g id="Warning_icn" transform="translate(-568 -852)">
	<g id="Polygon_2" transform="translate(568 852)">
		<path class="st0" d="M7.8,2.9C8.3,2,9.6,1.6,10.5,2.2c0.3,0.2,0.5,0.4,0.7,0.7l6,10.1c0.6,1,0.2,2.2-0.7,2.7
			c-0.3,0.2-0.7,0.3-1,0.3h-12c-1.1,0-2-0.9-2-2c0-0.4,0.1-0.7,0.3-1L7.8,2.9z"/>
		<path class="st1" d="M9.5,2.9c-0.2,0-0.6,0-0.9,0.5l-6,10.1c-0.3,0.5-0.1,0.9,0,1C2.7,14.6,3,15,3.5,15h12c0.5,0,0.8-0.4,0.9-0.5
			c0.1-0.2,0.3-0.6,0-1l-6-10.1C10.1,3,9.7,2.9,9.5,2.9 M9.5,1.9c0.7,0,1.3,0.3,1.7,1l6,10.1c0.8,1.3-0.2,3-1.7,3h-12
			C2,16,1,14.3,1.8,13l6-10.1C8.2,2.2,8.8,1.9,9.5,1.9z"/>
	</g>
	<g class="st2">
		<path class="st1" d="M576.8,865.5c0-0.3,0.2-0.5,0.5-0.5c0.3,0,0.5,0.2,0.5,0.5c0,0.3-0.2,0.5-0.5,0.5
			C577.1,866,576.8,865.8,576.8,865.5z"/>
		<polygon class="st1" points="577,864.3 576.9,858 577.9,858 577.8,864.3 		"/>
	</g>
</g>
</svg>
